<?xml version="1.0" encoding="utf-8"?>
<!-- Generator: Adobe Illustrator 24.3.0, SVG Export Plug-In . SVG Version: 6.00 Build 0)  -->
<svg version="1.1" id="Ebene_1" xmlns="http://www.w3.org/2000/svg" xmlns:xlink="http://www.w3.org/1999/xlink" x="0px" y="0px"
	 viewBox="0 0 210 297" style="enable-background:new 0 0 210 297;" xml:space="preserve">
<style type="text/css">
	.st0{fill:#C6C6C6;}
	.st1{fill-rule:evenodd;clip-rule:evenodd;fill:#020203;stroke:#020203;}
	.st2{fill:none;stroke:#020203;stroke-width:1.4;}
	.st3{fill:none;stroke:#E30613;stroke-width:4;stroke-miterlimit:10;}
</style>
<g id="layer1" transform="translate(0,-644.36218)">
	<path id="path4705-3" class="st0" d="M200.3,833.3c0,27-21.9,48.9-48.9,48.9s-48.9-21.9-48.9-48.9l0,0c0-27,21.9-48.9,48.9-48.9
		S200.3,806.3,200.3,833.3z"/>
	<path id="path4705-8" class="st0" d="M201.4,719.7c0,23.9-19.3,43.2-43.2,43.2S115,743.6,115,719.7l0,0c0-23.9,19.3-43.2,43.2-43.2
		S201.4,695.8,201.4,719.7z"/>
	<path id="path4705" class="st0" d="M88,779.1c0,23-18.7,41.7-41.7,41.7S4.6,802.2,4.6,779.1l0,0c0-23,18.7-41.7,41.7-41.7
		S88,756.1,88,779.1z"/>
	<path id="path3821" class="st1" d="M49.1,749.7c0,1.7-1.4,3.1-3.1,3.1s-3.1-1.4-3.1-3.1c0,0,0,0,0,0c0-1.7,1.4-3.1,3.1-3.1
		C47.7,746.5,49.1,747.9,49.1,749.7C49.1,749.7,49.1,749.7,49.1,749.7z"/>
	<path id="path3821-8" class="st1" d="M23,785.3c0,1.7-1.4,3.1-3.1,3.1c-1.7,0-3.1-1.4-3.1-3.1c0,0,0,0,0,0c0-1.7,1.4-3.1,3.1-3.1
		C21.6,782.2,23,783.6,23,785.3C23,785.3,23,785.3,23,785.3z"/>
	<path id="path3821-0" class="st1" d="M55.3,801.4c0,1.7-1.4,3.1-3.1,3.1c-1.7,0-3.1-1.4-3.1-3.1c0,0,0,0,0,0c0-1.7,1.4-3.1,3.1-3.1
		C53.9,798.2,55.3,799.6,55.3,801.4C55.3,801.4,55.3,801.4,55.3,801.4z"/>
	<path id="path3821-4" class="st1" d="M74.7,769.3c0,1.7-1.4,3.1-3.1,3.1s-3.1-1.4-3.1-3.1c0,0,0,0,0,0c0-1.7,1.4-3.1,3.1-3.1
		C73.3,766.2,74.7,767.6,74.7,769.3C74.7,769.3,74.7,769.3,74.7,769.3z"/>
	<path id="path3821-3" class="st1" d="M132.7,733.8c0,1.7-1.4,3.1-3.1,3.1c-1.7,0-3.1-1.4-3.1-3.1c0,0,0,0,0,0
		c0-1.7,1.4-3.1,3.1-3.1C131.3,730.7,132.7,732.1,132.7,733.8C132.7,733.8,132.7,733.8,132.7,733.8z"/>
	<path id="path3821-43" class="st1" d="M136,704.6c0,1.7-1.4,3.1-3.1,3.1c-1.7,0-3.1-1.4-3.1-3.1c0,0,0,0,0,0c0-1.7,1.4-3.1,3.1-3.1
		C134.6,701.5,136,702.8,136,704.6C136,704.6,136,704.6,136,704.6z"/>
	<path id="path3821-5" class="st1" d="M168.3,691.8c0,1.7-1.4,3.1-3.1,3.1c-1.7,0-3.1-1.4-3.1-3.1c0,0,0,0,0,0
		c0-1.7,1.4-3.1,3.1-3.1C166.9,688.7,168.3,690.1,168.3,691.8C168.3,691.8,168.3,691.8,168.3,691.8z"/>
	<path id="path3821-1" class="st1" d="M194.4,711.2c0,1.7-1.4,3.1-3.1,3.1c-1.7,0-3.1-1.4-3.1-3.1c0,0,0,0,0,0
		c0-1.7,1.4-3.1,3.1-3.1C193,708,194.4,709.4,194.4,711.2C194.4,711.2,194.4,711.2,194.4,711.2z"/>
	<path id="path3821-7" class="st1" d="M166.3,747.3c0,1.7-1.4,3.1-3.1,3.1c-1.7,0-3.1-1.4-3.1-3.1c0,0,0,0,0,0
		c0-1.7,1.4-3.1,3.1-3.1C164.9,744.2,166.3,745.6,166.3,747.3C166.3,747.3,166.3,747.3,166.3,747.3z"/>
	<path id="path3821-431" class="st1" d="M187.7,814.1c0,1.7-1.4,3.1-3.1,3.1c-1.7,0-3.1-1.4-3.1-3.1c0,0,0,0,0,0
		c0-1.7,1.4-3.1,3.1-3.1C186.3,811,187.7,812.4,187.7,814.1C187.7,814.1,187.7,814.1,187.7,814.1z"/>
	<path id="path3821-46" class="st1" d="M158.7,836.8c0,1.7-1.4,3.1-3.1,3.1c-1.7,0-3.1-1.4-3.1-3.1c0,0,0,0,0,0
		c0-1.7,1.4-3.1,3.1-3.1C157.3,833.7,158.7,835.1,158.7,836.8C158.7,836.8,158.7,836.8,158.7,836.8z"/>
	<path id="path3821-9" class="st1" d="M145.5,801.2c0,1.7-1.4,3.1-3.1,3.1c-1.7,0-3.1-1.4-3.1-3.1c0,0,0,0,0,0
		c0-1.7,1.4-3.1,3.1-3.1C144.1,798.1,145.5,799.5,145.5,801.2C145.5,801.2,145.5,801.2,145.5,801.2z"/>
	<path id="path3821-42" class="st1" d="M119.9,836.8c0,1.7-1.4,3.1-3.1,3.1c-1.7,0-3.1-1.4-3.1-3.1c0,0,0,0,0,0
		c0-1.7,1.4-3.1,3.1-3.1C118.5,833.6,119.9,835,119.9,836.8C119.9,836.7,119.9,836.7,119.9,836.8z"/>
	<path id="path3821-2" class="st1" d="M158.8,869c0,1.7-1.4,3.1-3.1,3.1c-1.7,0-3.1-1.4-3.1-3.1c0,0,0,0,0,0c0-1.7,1.4-3.1,3.1-3.1
		S158.8,867.3,158.8,869C158.8,869,158.8,869,158.8,869z"/>
	<path id="path4693" class="st2" d="M46.4,749.2l-26.7,36.4l32,15.3L46.4,749.2z"/>
	<path id="path4695" class="st2" d="M20.8,785.4l50.8-16.5l-25.8-19.5"/>
	<path id="path4697" class="st2" d="M71.5,769.6l45.3,67.5l38.6,32.1l29.2-55.2l-42.2-13l-25.6,35.7l38.5,0.2l-12.8-35.7l20.6-53.7
		l28.1-36.7l-6.5,103.5l-68,22.5"/>
	<path id="path4699" class="st2" d="M155.7,836.7v32"/>
	<path id="path4701" class="st2" d="M162.9,747.4l2.3-55.9l-32.3,13l-3.2,29l61.8-22.7l-58.7-6.5L162.9,747.4z"/>
	<path id="path4703" class="st2" d="M71.5,769.2l58-35.3"/>
</g>
<polygon class="st3" points="46.7,107.2 51.7,156.5 71.5,125.2 "/>
<polyline class="st3" points="132.8,60.2 129.5,89.5 191.5,66.5 "/>
<line class="st3" x1="165.2" y1="47.2" x2="162.9" y2="103.1"/>
<polyline class="st3" points="184.7,169.8 142.5,156.8 151.4,181.4 155.3,192.5 155.7,224.3 "/>
<line class="st3" x1="151.4" y1="181.4" x2="182.5" y2="169.7"/>
</svg>
